<svg xmlns="http://www.w3.org/2000/svg" width="108.677" height="93.224" viewBox="0 0 108.677 93.224"><defs><style>.a{fill:rgba(0,204,110,0.24);}.b{fill:#454545;}.c{fill:none;}</style></defs><g transform="translate(31.177 25.509)"><path class="a" d="M-1139.193,128.841h-53.192a10.943,10.943,0,0,0-10.931,10.931v6.63c.036.017.072.025.109.044a18.142,18.142,0,0,1,8.146,9.366c9.057.52,18.5-.8,27.488.943a4.171,4.171,0,0,1,3.736,4.166c0,.058,0,.116,0,.174a2.589,2.589,0,0,1-.389,2.9,9.945,9.945,0,0,0-.127,1.079c-.094,1.7.131,3.181-.5,4.793-.5,1.28-2.184,2.483-3.553,1.446-1.808-1.37-2.8-4.091-4.642-5.2-1.093-.662-3.054-.332-4.31-.207-1.8.177-2.273.759-3.108,2.3a2.433,2.433,0,0,1-3.8.489c-1.315-1.631-2.081-3.442-4.41-3.275-1.566.112-3.075.628-4.643.829a22.029,22.029,0,0,1-4.3,12.45c-1.251,1.612-3.207,4.317-5.606,3.479-.031-.011-.058-.027-.088-.038v1.995a10.944,10.944,0,0,0,10.931,10.932h53.192a10.944,10.944,0,0,0,10.931-10.932V139.772A10.944,10.944,0,0,0-1139.193,128.841Z" transform="translate(1203.316 -128.841)"/></g><g transform="translate(30.23 24.012)"><path class="b" d="M-1137.56,126.842h-55.6a11.438,11.438,0,0,0-11.425,11.426v6.055a3.508,3.508,0,0,1,1.966.986,3.469,3.469,0,0,1,1.778.985v-8.026a7.69,7.69,0,0,1,7.681-7.682h55.6a7.69,7.69,0,0,1,7.682,7.682v46.36a7.69,7.69,0,0,1-7.682,7.682h-55.6a7.69,7.69,0,0,1-7.681-7.682v-6.315c-1.266.653-2.5,1.366-3.744,2.052v4.264a11.438,11.438,0,0,0,11.425,11.426h55.6a11.438,11.438,0,0,0,11.426-11.426v-46.36A11.438,11.438,0,0,0-1137.56,126.842Z" transform="translate(1204.581 -126.842)"/></g><g transform="translate(45.211 0)"><path class="b" d="M-1135.679,122.324h-13.6V110.266a3.133,3.133,0,0,0-3.129-3.129h-15.447a3.133,3.133,0,0,0-3.128,3.129v12.058h-13.6v-13.4a14.163,14.163,0,0,1,14.148-14.147h20.6a14.163,14.163,0,0,1,14.148,14.147Zm-9.851-3.744h6.107v-9.659a10.415,10.415,0,0,0-10.4-10.4h-20.6a10.415,10.415,0,0,0-10.4,10.4v9.659h6.108v-8.314a6.88,6.88,0,0,1,6.872-6.873h15.447a6.881,6.881,0,0,1,6.873,6.873Z" transform="translate(1184.574 -94.774)"/></g><g transform="translate(0 38.601)"><g transform="translate(3.744 3.744)"><path class="c" d="M-1217.49,167.024a6.772,6.772,0,0,0-6.765,6.765,6.772,6.772,0,0,0,6.765,6.764,6.773,6.773,0,0,0,6.764-6.764A6.773,6.773,0,0,0-1217.49,167.024Z" transform="translate(1236.009 -155.269)"/><path class="c" d="M-1221.433,180.353a10.521,10.521,0,0,1-10.509-10.508,10.521,10.521,0,0,1,10.509-10.508,10.521,10.521,0,0,1,9.662,6.384V154.068a18.483,18.483,0,0,0-9.662-2.743,18.54,18.54,0,0,0-18.52,18.52,18.54,18.54,0,0,0,18.52,18.519,18.386,18.386,0,0,0,9.662-2.744v-11.65A10.521,10.521,0,0,1-1221.433,180.353Z" transform="translate(1239.953 -151.325)"/><path class="b" d="M-1218.745,162.024a10.521,10.521,0,0,0-10.509,10.508,10.521,10.521,0,0,0,10.509,10.508,10.522,10.522,0,0,0,9.662-6.384,10.446,10.446,0,0,0,.845-4.124,10.448,10.448,0,0,0-.845-4.124A10.522,10.522,0,0,0-1218.745,162.024Zm0,17.273a6.772,6.772,0,0,1-6.765-6.765,6.772,6.772,0,0,1,6.765-6.765,6.773,6.773,0,0,1,6.764,6.765A6.772,6.772,0,0,1-1218.745,179.3Z" transform="translate(1237.265 -154.013)"/></g><path class="b" d="M-1168.612,155.441a7.113,7.113,0,0,0-7.114-7.113,7.113,7.113,0,0,0-7.113,7.113,7.077,7.077,0,0,0,.768,3.2l-20.857-.308a22.315,22.315,0,0,0-10.1-9.782,22.185,22.185,0,0,0-9.662-2.23,22.288,22.288,0,0,0-22.264,22.264,22.287,22.287,0,0,0,22.264,22.263,22.087,22.087,0,0,0,9.662-2.221,22.342,22.342,0,0,0,12.349-16.731h2.134l5.208,5.489,5.488-5.489h2.972l7.5,7.99v1.958a1.872,1.872,0,0,0,1.872,1.872,1.872,1.872,0,0,0,1.872-1.872V162.24A7.117,7.117,0,0,0-1168.612,155.441Zm-8.959,18.768-5.685-6.053h-6.143l-3.867,3.868-3.67-3.868h-7.164l-.121,1.742a18.523,18.523,0,0,1-8.8,14.466,18.388,18.388,0,0,1-9.662,2.744,18.54,18.54,0,0,1-18.52-18.519,18.541,18.541,0,0,1,18.52-18.52,18.484,18.484,0,0,1,9.662,2.743,18.538,18.538,0,0,1,7.213,8.152l.49,1.083,27.829.41Z" transform="translate(1244.953 -146.325)"/></g></svg>